<?xml version="1.0" encoding="UTF-8" standalone="no"?>
<svg
   xmlns:dc="http://purl.org/dc/elements/1.1/"
   xmlns:cc="http://creativecommons.org/ns#"
   xmlns:rdf="http://www.w3.org/1999/02/22-rdf-syntax-ns#"
   xmlns:svg="http://www.w3.org/2000/svg"
   xmlns="http://www.w3.org/2000/svg"
   xmlns:sodipodi="http://sodipodi.sourceforge.net/DTD/sodipodi-0.dtd"
   xmlns:inkscape="http://www.inkscape.org/namespaces/inkscape"
   viewBox="0 0 22 22"
   id="svg2"
   version="1.1"
   inkscape:version="0.91 r"
   sodipodi:docname="list-remove.svg"
   inkscape:export-filename="/home/raresh/Desktop/delete.png"
   inkscape:export-xdpi="98.181816"
   inkscape:export-ydpi="98.181816">
  <metadata
     id="metadata10">
    <rdf:RDF>
      <cc:Work
         rdf:about="">
        <dc:format>image/svg+xml</dc:format>
        <dc:type
           rdf:resource="http://purl.org/dc/dcmitype/StillImage" />
      </cc:Work>
    </rdf:RDF>
  </metadata>
  <sodipodi:namedview
     pagecolor="#ffffff"
     bordercolor="#666666"
     borderopacity="1"
     objecttolerance="10"
     gridtolerance="10"
     guidetolerance="10"
     inkscape:pageopacity="0"
     inkscape:pageshadow="2"
     inkscape:window-width="1366"
     inkscape:window-height="740"
     id="namedview8"
     showgrid="false"
     inkscape:zoom="24.387784"
     inkscape:cx="4.5213466"
     inkscape:cy="11"
     inkscape:window-x="0"
     inkscape:window-y="0"
     inkscape:window-maximized="1"
     inkscape:current-layer="svg2" />
  <defs
     id="defs3051">
    <style
       type="text/css"
       id="current-color-scheme">
      .ColorScheme-NegativeText {
        color:#da4453;
      }
      </style>
  </defs>
  <path
     style="fill:currentColor;fill-opacity:1;stroke:none"
     class="ColorScheme-NegativeText"
     d="m 10.999935,3 c 4.41128,0 8,3.58875 8,8 0,4.41125 -3.58868,8 -7.99996,8 -4.41124,0 -7.99991,-3.58875 -7.99991,-8 0,-4.41125 3.58867,-8 7.99987,-8 z m 0,2.70422 c -0.97041,0 -1.88051,0.26261 -2.6635,0.72012 l 7.23917,7.23916 c 0.45755,-0.78296 0.72016,-1.6931 0.72016,-2.6635 0,-2.92013 -2.37574,-5.29578 -5.29583,-5.29578 z m 0,10.59157 c 0.97043,0 1.8805,-0.26261 2.6635,-0.72012 L 6.424265,8.33651 C 5.966755,9.11949 5.704145,10.0296 5.704145,11 c 0,2.92013 2.37575,5.29579 5.29579,5.29579 z"
     id="path6" />
</svg>
