<?xml version="1.0" encoding="UTF-8" standalone="no"?>
<svg
   xmlns:dc="http://purl.org/dc/elements/1.1/"
   xmlns:cc="http://creativecommons.org/ns#"
   xmlns:rdf="http://www.w3.org/1999/02/22-rdf-syntax-ns#"
   xmlns:svg="http://www.w3.org/2000/svg"
   xmlns="http://www.w3.org/2000/svg"
   xmlns:sodipodi="http://sodipodi.sourceforge.net/DTD/sodipodi-0.dtd"
   xmlns:inkscape="http://www.inkscape.org/namespaces/inkscape"
   viewBox="0 0 22 22"
   id="svg2"
   version="1.1"
   inkscape:version="0.91 r"
   sodipodi:docname="dialog-ok.svg"
   inkscape:export-filename="/home/raresh/Desktop/good.png"
   inkscape:export-xdpi="49.090908"
   inkscape:export-ydpi="49.090908">
  <metadata
     id="metadata10">
    <rdf:RDF>
      <cc:Work
         rdf:about="">
        <dc:format>image/svg+xml</dc:format>
        <dc:type
           rdf:resource="http://purl.org/dc/dcmitype/StillImage" />
      </cc:Work>
    </rdf:RDF>
  </metadata>
  <sodipodi:namedview
     pagecolor="#ffffff"
     bordercolor="#666666"
     borderopacity="1"
     objecttolerance="10"
     gridtolerance="10"
     guidetolerance="10"
     inkscape:pageopacity="0"
     inkscape:pageshadow="2"
     inkscape:window-width="1366"
     inkscape:window-height="740"
     id="namedview8"
     showgrid="false"
     inkscape:zoom="17.244768"
     inkscape:cx="8.8908666"
     inkscape:cy="9.8665521"
     inkscape:window-x="0"
     inkscape:window-y="0"
     inkscape:window-maximized="1"
     inkscape:current-layer="svg2" />
  <defs
     id="defs3051">
    <style
       type="text/css"
       id="current-color-scheme">
      .ColorScheme-Text {
        color:#f2f2f2
      }
      </style>
  </defs>
  <path
     style="fill:#27ae60;fill-opacity:1;stroke:none"
     class="ColorScheme-Text"
     d="m 16.60547,5 c -0.27532,0 -0.51054,0.0942 -0.70313,0.28289 l -6.7714801,6.63651 -3.0332,-2.97993 c -0.19271,-0.1886 -0.42794,-0.28289 -0.70313,-0.28289 -0.27532,0 -0.50846,0.0943 -0.70117,0.28289 l -1.4043,1.37433 c -0.19271,0.18859 -0.28906,0.41676 -0.28906,0.6862 0,0.26932 0.0963,0.49773 0.28906,0.6862 l 3.73633,3.65849 1.4043,1.37242 c 0.19258,0.1886 0.42585,0.28289 0.70117,0.28289 0.27519,0 0.51041,-0.0944 0.70312,-0.28289 L 11.23828,15.34469 18.71094,8.02962 C 18.90352,7.84103 19,7.61286 19,7.34342 19.00013,7.0741 18.9035,6.8439 18.71094,6.65531 L 17.30664,5.28289 C 17.11406,5.09429 16.88066,5 16.60547,5 Z"
     id="path6" />
</svg>
